<svg width="33" height="40" viewBox="0 0 33 40" fill="none" xmlns="http://www.w3.org/2000/svg">
<path d="M21.8006 18.34C23.2989 19.8426 24.1403 21.878 24.1403 24C24.1403 26.122 23.2989 28.1574 21.8006 29.66C20.298 31.1583 18.2626 31.9997 16.1406 31.9997C14.0186 31.9997 11.9832 31.1583 10.4806 29.66L21.8006 18.34ZM4.14062 0H28.1406C29.2015 0 30.2189 0.421427 30.9691 1.17157C31.7192 1.92172 32.1406 2.93913 32.1406 4V36C32.1406 37.0609 31.7192 38.0783 30.9691 38.8284C30.2189 39.5786 29.2015 40 28.1406 40H4.14062C3.07976 40 2.06234 39.5786 1.3122 38.8284C0.562052 38.0783 0.140625 37.0609 0.140625 36V4C0.140625 2.93913 0.562052 1.92172 1.3122 1.17157C2.06234 0.421427 3.07976 0 4.14062 0ZM6.14062 4C5.61019 4 5.10148 4.21071 4.72641 4.58579C4.35134 4.96086 4.14062 5.46957 4.14062 6C4.14062 6.53043 4.35134 7.03914 4.72641 7.41421C5.10148 7.78929 5.61019 8 6.14062 8C6.67106 8 7.17977 7.78929 7.55484 7.41421C7.92991 7.03914 8.14062 6.53043 8.14062 6C8.14062 5.46957 7.92991 4.96086 7.55484 4.58579C7.17977 4.21071 6.67106 4 6.14062 4ZM12.1406 4C11.6102 4 11.1015 4.21071 10.7264 4.58579C10.3513 4.96086 10.1406 5.46957 10.1406 6C10.1406 6.53043 10.3513 7.03914 10.7264 7.41421C11.1015 7.78929 11.6102 8 12.1406 8C12.6711 8 13.1798 7.78929 13.5548 7.41421C13.9299 7.03914 14.1406 6.53043 14.1406 6C14.1406 5.46957 13.9299 4.96086 13.5548 4.58579C13.1798 4.21071 12.6711 4 12.1406 4ZM16.1406 12C12.958 12 9.90578 13.2643 7.65534 15.5147C5.40491 17.7652 4.14062 20.8174 4.14062 24C4.14062 27.1826 5.40491 30.2348 7.65534 32.4853C9.90578 34.7357 12.958 36 16.1406 36C19.3232 36 22.3755 34.7357 24.6259 32.4853C26.8763 30.2348 28.1406 27.1826 28.1406 24C28.1406 20.8174 26.8763 17.7652 24.6259 15.5147C22.3755 13.2643 19.3232 12 16.1406 12Z" fill="black"/>
</svg>
