<svg width="1296" height="423" viewBox="0 0 1296 423" fill="none" xmlns="http://www.w3.org/2000/svg">
<circle cx="650.14" cy="200" r="200" fill="url(#paint0_linear_1193_272)"/>
<path d="M1159.04 372.326C1159.04 372.326 1167.39 401.54 1189.9 412.504C1212.41 423.467 1240.56 412.029 1240.56 412.029C1240.56 412.029 1232.21 382.815 1209.7 371.852C1187.19 360.888 1159.04 372.326 1159.04 372.326Z" fill="#F2726C"/>
<path d="M1214.31 240.161C1214.31 240.161 1229.28 256.502 1247.55 256.317C1265.81 256.132 1280.45 239.491 1280.45 239.491C1280.45 239.491 1265.48 223.15 1247.21 223.335C1228.95 223.52 1214.31 240.161 1214.31 240.161Z" fill="#FAA881"/>
<path d="M1133.23 126.375C1133.23 126.375 1191.6 134.416 1236.34 104.106C1281.09 73.7964 1295.27 16.6126 1295.27 16.6126C1295.27 16.6126 1236.91 8.5712 1192.16 38.8813C1147.41 69.1913 1133.23 126.375 1133.23 126.375Z" fill="#7675FD"/>
<path d="M14.335 234.011C14.335 234.011 22.1423 249.918 36.1953 253.888C50.2483 257.858 65.2253 248.389 65.2253 248.389C65.2253 248.389 57.4179 232.482 43.365 228.512C29.312 224.541 14.335 234.011 14.335 234.011Z" fill="#F26C74"/>
<path d="M100.209 98.4599C100.209 98.4599 95.637 57.7493 67.965 37.2028C40.293 16.6563 0 24.0545 0 24.0545C0 24.0545 4.57219 64.7651 32.2442 85.3116C59.9162 105.858 100.209 98.4599 100.209 98.4599Z" fill="#FAA881"/>
<path d="M129.295 391.917C129.295 391.917 108.606 381.45 90.295 388.174C71.9837 394.897 62.9839 416.265 62.9839 416.265C62.9839 416.265 83.6726 426.732 101.984 420.008C120.295 413.285 129.295 391.917 129.295 391.917Z" fill="#43A3A8"/>
<defs>
<linearGradient id="paint0_linear_1193_272" x1="650.14" y1="105.952" x2="650.14" y2="400" gradientUnits="userSpaceOnUse">
<stop stop-color="#F7F3F4"/>
<stop offset="1" stop-color="#F7F3F4" stop-opacity="0"/>
</linearGradient>
</defs>
</svg>
